<mxfile host="app.diagrams.net" agent="Mozilla/5.0 (Windows NT 10.0; Win64; x64) AppleWebKit/537.36 (KHTML, like Gecko) Chrome/134.0.0.0 Safari/537.36 Edg/134.0.0.0" version="26.1.2">
  <diagram name="Page-1" id="MQCQnYCVYzXN_VV2rspg">
    <mxGraphModel>
      <root>
        <mxCell id="0" />
        <mxCell id="1" parent="0" />
        <mxCell id="2" value="Business Central AL Code" style="whiteSpace=wrap;strokeWidth=2;verticalAlign=top;" vertex="1" parent="1">
          <mxGeometry x="8" y="8" width="1609" height="322" as="geometry" />
        </mxCell>
        <mxCell id="3" value="Intercompany Transactions" style="whiteSpace=wrap;strokeWidth=2;verticalAlign=top;" vertex="1" parent="2">
          <mxGeometry x="43" y="46" width="1539" height="247" as="geometry" />
        </mxCell>
        <mxCell id="4" value="Start" style="rounded=1;arcSize=20;strokeWidth=2" vertex="1" parent="3">
          <mxGeometry x="58" y="104" width="65" height="54" as="geometry" />
        </mxCell>
        <mxCell id="5" value="Initialize" style="rhombus;strokeWidth=2;whiteSpace=wrap;" vertex="1" parent="3">
          <mxGeometry x="223" y="73" width="117" height="117" as="geometry" />
        </mxCell>
        <mxCell id="6" value="Load Data" style="rhombus;strokeWidth=2;whiteSpace=wrap;" vertex="1" parent="3">
          <mxGeometry x="440" y="68" width="126" height="126" as="geometry" />
        </mxCell>
        <mxCell id="7" value="Process Data" style="rhombus;strokeWidth=2;whiteSpace=wrap;" vertex="1" parent="3">
          <mxGeometry x="665" y="59" width="144" height="144" as="geometry" />
        </mxCell>
        <mxCell id="8" value="Validate" style="rhombus;strokeWidth=2;whiteSpace=wrap;" vertex="1" parent="3">
          <mxGeometry x="910" y="75" width="112" height="112" as="geometry" />
        </mxCell>
        <mxCell id="9" value="Post Transactions" style="rhombus;strokeWidth=2;whiteSpace=wrap;" vertex="1" parent="3">
          <mxGeometry x="1122" y="43" width="177" height="177" as="geometry" />
        </mxCell>
        <mxCell id="10" value="Complete" style="rounded=1;arcSize=20;strokeWidth=2" vertex="1" parent="3">
          <mxGeometry x="1399" y="104" width="99" height="54" as="geometry" />
        </mxCell>
        <mxCell id="11" value="" style="curved=1;startArrow=none;endArrow=block;exitX=1;exitY=0.5;entryX=0;entryY=0.5;" edge="1" parent="3" source="4" target="5">
          <mxGeometry relative="1" as="geometry">
            <Array as="points" />
          </mxGeometry>
        </mxCell>
        <mxCell id="12" value="" style="curved=1;startArrow=none;endArrow=block;exitX=1;exitY=0.5;entryX=0;entryY=0.5;" edge="1" parent="3" source="5" target="6">
          <mxGeometry relative="1" as="geometry">
            <Array as="points" />
          </mxGeometry>
        </mxCell>
        <mxCell id="13" value="" style="curved=1;startArrow=none;endArrow=block;exitX=1;exitY=0.5;entryX=0;entryY=0.5;" edge="1" parent="3" source="6" target="7">
          <mxGeometry relative="1" as="geometry">
            <Array as="points" />
          </mxGeometry>
        </mxCell>
        <mxCell id="14" value="" style="curved=1;startArrow=none;endArrow=block;exitX=1.01;exitY=0.5;entryX=0;entryY=0.5;" edge="1" parent="3" source="7" target="8">
          <mxGeometry relative="1" as="geometry">
            <Array as="points" />
          </mxGeometry>
        </mxCell>
        <mxCell id="15" value="" style="curved=1;startArrow=none;endArrow=block;exitX=1;exitY=0.5;entryX=0;entryY=0.5;" edge="1" parent="3" source="8" target="9">
          <mxGeometry relative="1" as="geometry">
            <Array as="points" />
          </mxGeometry>
        </mxCell>
        <mxCell id="16" value="" style="curved=1;startArrow=none;endArrow=block;exitX=1;exitY=0.5;entryX=0;entryY=0.5;" edge="1" parent="3" source="9" target="10">
          <mxGeometry relative="1" as="geometry">
            <Array as="points" />
          </mxGeometry>
        </mxCell>
      </root>
    </mxGraphModel>
  </diagram>
</mxfile>
